 <svg id="randomSVG" viewBox="0 0 200 200" xmlns="http://www.w3.org/2000/svg">
    <path fill="#FF0066" d="M36,-60.2C49.5,-54.6,65.1,-50.6,70,-40.8C74.9,-31.1,69.1,-15.5,64.6,-2.6C60.1,10.3,56.9,20.7,54.3,34.4C51.7,48.2,49.7,65.4,40.7,74.3C31.8,83.2,15.9,83.9,1,82.1C-13.8,80.3,-27.7,76.1,-39.8,69.1C-51.9,62,-62.4,52,-71.2,40C-80.1,28,-87.4,14,-83.1,2.5C-78.8,-9,-62.9,-18.1,-53,-28.2C-43,-38.3,-39,-49.5,-31.2,-58.3C-23.4,-67.1,-11.7,-73.6,-0.2,-73.2C11.3,-72.9,22.6,-65.7,36,-60.2Z" transform="translate(100 100)" />
  </svg>